<svg id="圖層_1" data-name="圖層 1" xmlns="http://www.w3.org/2000/svg" viewBox="0 0 24 24"><defs><style>.cls-1{fill:#bbb;}</style></defs><g id="Group_524" data-name="Group 524"><path id="Path_999" data-name="Path 999" class="cls-1" d="M21.42,11.34l-4.3-3.11A.83.83,0,0,0,16,8.41a.84.84,0,0,0,.18,1.15l2.25,1.62h-7.1a.82.82,0,0,0,0,1.64h7.1l-2.25,1.63A.82.82,0,0,0,16,15.59a.81.81,0,0,0,1.14.18l4.3-3.1a.83.83,0,0,0,.19-1.15A.66.66,0,0,0,21.42,11.34Z"/><g id="Group_523" data-name="Group 523"><path id="Path_1000" data-name="Path 1000" class="cls-1" d="M7.48,18V6H14a1.8,1.8,0,0,0,1.8-1.8h0V3.24A1.8,1.8,0,0,0,14,1.44H4a1.79,1.79,0,0,0-1.8,1.8h0V20.76A1.79,1.79,0,0,0,4,22.56H14a1.8,1.8,0,0,0,1.8-1.8h0v-.94A1.8,1.8,0,0,0,14,18H7.48Z"/></g></g></svg>