<?xml version="1.0" encoding="utf-8"?>
<!-- Generator: Adobe Illustrator 22.1.0, SVG Export Plug-In . SVG Version: 6.00 Build 0)  -->
<svg version="1.1" id="圖層_1" xmlns="http://www.w3.org/2000/svg" xmlns:xlink="http://www.w3.org/1999/xlink" x="0px" y="0px"
	 viewBox="0 0 32 32" style="enable-background:new 0 0 32 32;" xml:space="preserve">
<style type="text/css">
	.st0{fill:#B2B2B2;}
</style>
<g id="Component_13_4">
	<g id="Group_1">
		<path id="Path_1" class="st0" d="M31.3,27.4l-6.9-6.9c-0.7-0.7-1.8-0.7-2.5,0l-1.3,1.3c-0.7,0.7-0.7,1.8,0,2.5l6.9,6.9
			c0.5,0.4,1.1,0.7,1.7,0.7c0.3,0,0.6-0.1,0.9-0.2h0.1l1.5-1.5v-0.1C32.2,29.2,32,28.2,31.3,27.4z"/>
		<path id="Path_2" class="st0" d="M12,0.1c-6.6,0-12,5.4-12,12s5.4,12,12,12s12-5.4,12-12l0,0C24,5.5,18.6,0.1,12,0.1z M10.8,5
			c-0.1,0.2-0.3,0.4-0.6,0.4c-3.6,1-5.8,4.7-4.9,8.3c0,0,0,0,0,0c0.2,0.6,0.4,1.1,0.7,1.7c0.1,0.5-0.2,1.1-0.8,1.2
			c-0.3,0.1-0.6,0-0.9-0.2C2,12.2,3.4,6.9,7.6,4.5C8.3,4.1,9,3.8,9.7,3.6c0.2-0.1,0.5,0,0.7,0.1C10.9,4,11.1,4.5,10.8,5
			C10.8,5,10.8,5,10.8,5z"/>
	</g>
</g>
</svg>
