<svg id="圖層_1" data-name="圖層 1" xmlns="http://www.w3.org/2000/svg" viewBox="0 0 24 24"><defs><style>.cls-1{fill:#fcb239;}</style></defs><g id="Group_923" data-name="Group 923"><g id="Group_922" data-name="Group 922"><path id="Path_1212" data-name="Path 1212" class="cls-1" d="M12,0A12,12,0,1,0,24,12,12,12,0,0,0,12,0Zm0,22.53A10.53,10.53,0,1,1,22.53,12,10.54,10.54,0,0,1,12,22.53Z"/><path id="Path_1213" data-name="Path 1213" class="cls-1" d="M11.78,5.32a2,2,0,1,1-2,2h0A2,2,0,0,1,11.78,5.32Z"/><path id="Path_1214" data-name="Path 1214" class="cls-1" d="M15.16,17.82H8.84V16.14l.31-.1a3.1,3.1,0,0,0,1-.53V12a1.52,1.52,0,0,0-1.35-1v-.9h5v5.32a4.85,4.85,0,0,0,1.07.59l.28.11Z"/></g></g></svg>