<svg id="圖層_1" data-name="圖層 1" xmlns="http://www.w3.org/2000/svg" viewBox="0 0 24 24"><defs><style>.cls-1{fill:#858585;}</style></defs><g id="Group_510" data-name="Group 510"><path id="Subtraction_6" data-name="Subtraction 6" class="cls-1" d="M12,24A12,12,0,1,1,24,12,12,12,0,0,1,12,24ZM12,4.75C7.9,4.75,4.53,7.56,4.5,11a5.57,5.57,0,0,0,2.66,5h0a.46.46,0,0,0,.07.07A3.64,3.64,0,0,1,5.78,18.7l-.07.07a.27.27,0,0,0,0,.39.3.3,0,0,0,.2.08h0a10.41,10.41,0,0,0,4.7-2l.17,0c.25,0,1,.1,1.2.1,4.14,0,7.5-2.81,7.5-6.28S16.14,4.75,12,4.75Zm2.91,7.57A1.11,1.11,0,1,1,16,11.21h0a1.11,1.11,0,0,1-1.1,1.11Zm-3.05,0A1.11,1.11,0,1,1,13,11.21h0a1.11,1.11,0,0,1-1.11,1.11Zm-3,0a1.11,1.11,0,1,1,1.1-1.11h0A1.11,1.11,0,0,1,8.82,12.32Z"/></g></svg>