<svg id="圖層_1" data-name="圖層 1" xmlns="http://www.w3.org/2000/svg" viewBox="0 0 24 24"><defs><style>.cls-1{fill:#fff;}</style></defs><g id="Group_527" data-name="Group 527"><path id="Subtraction_9" data-name="Subtraction 9" class="cls-1" d="M12,24A12,12,0,1,1,24,12,12,12,0,0,1,12,24ZM3.37,9.05h0v7.31a1.28,1.28,0,0,0,1.29,1.28H19.34a1.28,1.28,0,0,0,1.29-1.28V7.64a1.3,1.3,0,0,0-1.29-1.29H4.66A1.3,1.3,0,0,0,3.37,7.64v1.1a.25.25,0,0,1,.18-.08h7.22A.24.24,0,0,1,11,8.9a.24.24,0,0,1-.24.24H3.55A.31.31,0,0,1,3.37,9.05Zm12,6.08H11.56a.4.4,0,1,1,0-.8H15.4a.4.4,0,1,1,0,.8Zm-6.21,0H6.09a.62.62,0,0,1-.61-.61V11.4a.61.61,0,0,1,.61-.61H9.18a.61.61,0,0,1,.61.61v3.1a.61.61,0,0,1-.61.61Zm6.21-1.76H11.56a.4.4,0,0,1-.4-.41.39.39,0,0,1,.4-.39H15.4a.39.39,0,0,1,.4.39A.4.4,0,0,1,15.4,13.35Zm3.38-1.78H11.56a.4.4,0,0,1-.4-.4.39.39,0,0,1,.4-.4h7.22a.39.39,0,0,1,.4.4.4.4,0,0,1-.4.4Z"/></g></svg>