<svg id="圖層_1" data-name="圖層 1" xmlns="http://www.w3.org/2000/svg" viewBox="0 0 24 24"><defs><style>.cls-1{fill:#fff;}</style></defs><g id="Group_494" data-name="Group 494"><path id="Subtraction_4" data-name="Subtraction 4" class="cls-1" d="M12,24A12,12,0,1,1,24,12,12,12,0,0,1,12,24Zm.28-11.75h0l-.37.59-2.74,4.4a3.2,3.2,0,0,1-1.79,1.48l-1.94.65-.1,0-.29.48,4.2-.65h.09c.27-.05.9-.15,1.08-.42l.27-.4c.09-.16,1.66-2.72,4.68-7.62l.23-.37c.5-.78,1.35-2.16,2.52-4.11l.14-.22,0,0A4.36,4.36,0,0,0,19,4.7a.67.67,0,0,0-.14-.45.49.49,0,0,0-.36-.13h0l-.3,0a3.62,3.62,0,0,0-1.52.55,8.61,8.61,0,0,0-1.26,1.56c-.76,1.18-1.5,2.38-1.63,2.61h0a3.4,3.4,0,0,1-1,1.07c-1.22.7-2.21,1.18-3.71,1.91l-.3.15c-1.6.78-1.76.87-2.06,1.28a5.56,5.56,0,0,0-.49.9,29.4,29.4,0,0,0,3.56-1.12c.85-.3,1.65-.59,2.52-.82ZM16.9,9.31l-2.2,3.58q1.85,1.95,3.88,3.72a2.55,2.55,0,0,0,.21-.28c.13-.23-.34-1.37-.6-2-.46-1.09-.72-1.76-1.16-3.07A4,4,0,0,1,16.9,9.31Z"/></g></svg>