<svg id="圖層_1" data-name="圖層 1" xmlns="http://www.w3.org/2000/svg" viewBox="0 0 16 16"><defs><style>.cls-1{fill:#005ba9;}.cls-2{fill:#fff;}</style></defs><g id="Group_39" data-name="Group 39"><circle id="Ellipse_9" data-name="Ellipse 9" class="cls-1" cx="8" cy="8" r="8"/><g id="Group_38" data-name="Group 38"><path id="Path_68" data-name="Path 68" class="cls-2" d="M11.2,7.54a2.52,2.52,0,0,1-.08-1.25L9.71,8.56a30.77,30.77,0,0,0,2.48,2.37,1.4,1.4,0,0,0,.13-.18c.08-.14-.2-.83-.38-1.25C11.65,8.8,11.49,8.38,11.2,7.54Z"/><path id="Path_69" data-name="Path 69" class="cls-2" d="M11.9,4.36a3.75,3.75,0,0,0,.53-1c0-.19-.08-.37-.32-.37h0l-.19,0a2.32,2.32,0,0,0-1,.35,5.57,5.57,0,0,0-.8,1C9.61,5.18,9.1,6,9.1,6a2.13,2.13,0,0,1-.61.69C7.66,7.17,7,7.48,5.93,8s-1.11.55-1.31.81a3.91,3.91,0,0,0-.31.57C5.83,9,6.93,8.49,8.18,8.16c-.76,1.22-1.69,2.72-2,3.17a2,2,0,0,1-1.14.95l-1.3.43L3.58,13l2.67-.42c.13,0,.62-.09.75-.28l.17-.26L10.3,7C10.71,6.33,11.43,5.14,11.9,4.36Z"/></g></g></svg>