<?xml version="1.0" encoding="utf-8"?>
<!-- Generator: Adobe Illustrator 22.1.0, SVG Export Plug-In . SVG Version: 6.00 Build 0)  -->
<svg version="1.2" baseProfile="tiny" id="圖層_1"
	 xmlns="http://www.w3.org/2000/svg" xmlns:xlink="http://www.w3.org/1999/xlink" x="0px" y="0px" viewBox="0 0 27 27"
	 xml:space="preserve">
<g id="Group_17">
	<g id="Group_13">
		<path id="Path_39" fill="#0D3386" d="M13.5,27C6,27,0,21,0,13.5S6,0,13.5,0S27,6,27,13.5S21,27,13.5,27L13.5,27z M13.5,1.5
			c-6.6,0-12,5.4-12,12s5.4,12,12,12s12-5.4,12-12S20.1,1.5,13.5,1.5z"/>
	</g>
	<g id="Group_16">
		<g id="Group_14">
			<circle id="Ellipse_2" fill="#0D3386" cx="13.4" cy="9.6" r="3.7"/>
		</g>
		<g id="Group_15">
			<path id="Path_40" fill="#0D3386" d="M13.5,14.1c-4.5,0-8.1,3.6-8.1,8.1l0,0c0,0.2,0,0.5,0,0.7c1.2,1.8,5,3.3,8,3.3
				s6.7-1.5,8.2-3.3c0-0.2,0-0.5,0-0.7C21.6,17.8,17.9,14.1,13.5,14.1L13.5,14.1L13.5,14.1z"/>
		</g>
	</g>
</g>
</svg>
