<svg id="圖層_1" data-name="圖層 1" xmlns="http://www.w3.org/2000/svg" viewBox="0 0 40 40"><defs><style>.cls-1{fill:gray;}</style></defs><path class="cls-1" d="M36.88,7.39H23.53L25,8.33,19,12.87a14.34,14.34,0,0,1,4-.58c6.6,0,12,4.36,12,9.71a8.62,8.62,0,0,1-2.57,6h0a38.63,38.63,0,0,1-9.4,7c-1.28.54-1.09-.34-1-.65l.17-1a2.46,2.46,0,0,0,0-1.08c-.14-.34-.67-.51-1.06-.59-5.75-.76-10-4.79-10-9.59a8.06,8.06,0,0,1,1-3.8L9.77,19.93V14.25h-3V37.53A2.48,2.48,0,0,0,9.22,40H36.88a2.48,2.48,0,0,0,2.48-2.47V9.86A2.48,2.48,0,0,0,36.88,7.39Z"/><path class="cls-1" d="M16.08,19.41h-.84a.23.23,0,0,0-.23.24v5.21h0a.21.21,0,0,0,.06.16h0a.24.24,0,0,0,.16.07h3.35a.24.24,0,0,0,.24-.24V24a.23.23,0,0,0-.24-.23H16.31V19.65A.23.23,0,0,0,16.08,19.41Z"/><rect class="cls-1" x="19.55" y="19.41" width="1.31" height="5.68" rx="0.23"/><path class="cls-1" d="M31,20.72a.23.23,0,0,0,.24-.23v-.84a.24.24,0,0,0-.24-.24H27.68a.24.24,0,0,0-.16.07h0a.23.23,0,0,0-.06.16h0v5.21h0a.21.21,0,0,0,.06.16h0a.24.24,0,0,0,.16.07H31a.24.24,0,0,0,.24-.24V24a.23.23,0,0,0-.24-.23H28.75v-.88H31a.24.24,0,0,0,.24-.24v-.83A.24.24,0,0,0,31,21.6H28.75v-.88Z"/><path class="cls-1" d="M22.74,25.1a.23.23,0,0,0,.23-.24V21.77L25.37,25a.1.1,0,0,0,.06.05h1a.23.23,0,0,0,.23-.24V19.65a.23.23,0,0,0-.23-.24h-.84a.24.24,0,0,0-.24.24v3.1l-2.39-3.23s0,0,0,0h-1a.23.23,0,0,0-.23.24v5.21a.23.23,0,0,0,.23.24Z"/><path class="cls-1" d="M10.66,4.9l0-4.9,12.8,8.43-12.8,9.75V13s-2.31,0-4.46,0c-1.73,0-2.78-.08-4,1S1,18.18,1,18.18H.62s.07-3,0-9C.58,5.45,2.82,5,4.82,4.9,6.53,4.84,10.66,4.9,10.66,4.9Z"/></svg>