<svg id="圖層_1" data-name="圖層 1" xmlns="http://www.w3.org/2000/svg" viewBox="0 0 40 40"><defs><style>.cls-1{fill:gray;}</style></defs><rect class="cls-1" x="6.17" y="6.17" width="3.95" height="3.95"/><rect class="cls-1" x="10.12" y="6.17" width="3.95" height="3.95"/><rect class="cls-1" x="14.07" y="6.17" width="3.95" height="3.95"/><rect class="cls-1" x="6.17" y="10.12" width="3.95" height="3.95"/><rect class="cls-1" x="14.07" y="10.12" width="3.95" height="3.95"/><rect class="cls-1" x="6.17" y="14.07" width="3.95" height="3.95"/><rect class="cls-1" x="10.12" y="14.07" width="3.95" height="3.95"/><rect class="cls-1" x="14.07" y="14.07" width="3.95" height="3.95"/><rect class="cls-1" x="21.98" y="6.17" width="3.95" height="3.95"/><rect class="cls-1" x="25.93" y="6.17" width="3.95" height="3.95"/><rect class="cls-1" x="29.88" y="6.17" width="3.95" height="3.95"/><rect class="cls-1" x="21.98" y="10.12" width="3.95" height="3.95"/><rect class="cls-1" x="29.88" y="10.12" width="3.95" height="3.95"/><rect class="cls-1" x="21.98" y="14.07" width="3.95" height="3.95"/><rect class="cls-1" x="25.93" y="14.07" width="3.95" height="3.95"/><rect class="cls-1" x="29.88" y="14.07" width="3.95" height="3.95"/><rect class="cls-1" x="6.17" y="21.98" width="3.95" height="3.95"/><rect class="cls-1" x="10.12" y="21.98" width="3.95" height="3.95"/><rect class="cls-1" x="14.07" y="21.98" width="3.95" height="3.95"/><rect class="cls-1" x="6.17" y="25.93" width="3.95" height="3.95"/><rect class="cls-1" x="14.07" y="25.93" width="3.95" height="3.95"/><rect class="cls-1" x="6.17" y="29.88" width="3.95" height="3.95"/><rect class="cls-1" x="10.12" y="29.88" width="3.95" height="3.95"/><rect class="cls-1" x="14.07" y="29.88" width="3.95" height="3.95"/><rect class="cls-1" x="21.98" y="21.98" width="3.95" height="3.95"/><rect class="cls-1" x="25.93" y="25.93" width="3.95" height="3.95"/><rect class="cls-1" x="29.88" y="21.98" width="3.95" height="3.95"/><rect class="cls-1" x="21.98" y="29.88" width="3.95" height="3.95"/><rect class="cls-1" x="29.88" y="29.88" width="3.95" height="3.95"/><path class="cls-1" d="M34,37H6a3,3,0,0,1-3-3V6A3,3,0,0,1,6,3H34a3,3,0,0,1,3,3V34A3,3,0,0,1,34,37ZM0,3V37a3,3,0,0,0,3,3H37a3,3,0,0,0,3-3V3a3,3,0,0,0-3-3H3A3,3,0,0,0,0,3Z"/></svg>