<svg id="圖層_1" data-name="圖層 1" xmlns="http://www.w3.org/2000/svg" viewBox="0 0 39.06 38.15"><defs><style>.cls-1{fill:#fff;}</style></defs><title>icon_search_1</title><g id="Component_13_4" data-name="Component 13 4"><g id="Group_1" data-name="Group 1"><path id="Path_1" data-name="Path 1" class="cls-1" d="M35.93,31.65l-7.1-7.1a1.87,1.87,0,0,0-2.6,0l-1.3,1.3a1.87,1.87,0,0,0,0,2.6h0l7.1,7.1a2.41,2.41,0,0,0,1.8.7,2.92,2.92,0,0,0,.9-.2h.1l1.6-1.6.1-.1A2.94,2.94,0,0,0,35.93,31.65Z"/><path id="Path_2" data-name="Path 2" class="cls-1" d="M15.73,3.15a12.45,12.45,0,1,0,12.4,12.5h0A12.42,12.42,0,0,0,15.73,3.15Zm-1.2,5.1a1,1,0,0,1-.6.5,7.08,7.08,0,0,0-5,8.7,8.65,8.65,0,0,0,.7,1.7,1,1,0,0,1-.5,1.3,1.1,1.1,0,0,1-1.2-.3,9.12,9.12,0,0,1,3.3-12.4h0a8.49,8.49,0,0,1,2.2-.9,1.13,1.13,0,0,1,.8.1.86.86,0,0,1,.3,1.3Z"/></g></g></svg>