<svg id="圖層_1" data-name="圖層 1" xmlns="http://www.w3.org/2000/svg" xmlns:xlink="http://www.w3.org/1999/xlink" viewBox="0 0 72 72"><defs><style>.cls-1{fill:none;}.cls-2{clip-path:url(#clip-path);}.cls-3{fill:#bbb;}.cls-4{fill:#ccc;}</style><clipPath id="clip-path"><rect class="cls-1" x="-92" width="72" height="72" rx="5.07"/></clipPath></defs><g class="cls-2"><g id="Mask_Group_15" data-name="Mask Group 15"><g id="Group_893" data-name="Group 893"><path id="Path_1204" data-name="Path 1204" class="cls-3" d="M-44-10,3.22,71.71h-94.4Z"/></g></g></g><g id="Group_877" data-name="Group 877"><path id="Path_1188" data-name="Path 1188" class="cls-4" d="M33.86,28.5A10.73,10.73,0,0,0,23.14,39.23a11.18,11.18,0,0,0,.6,3.53,1.08,1.08,0,0,0,1,.71,1,1,0,0,0,.35-.06,1.07,1.07,0,0,0,.66-1.36h0a8.56,8.56,0,0,1,8.09-11.4,1.08,1.08,0,0,0,0-2.15Z"/><path id="Path_1189" data-name="Path 1189" class="cls-4" d="M59.57,18.86H50.46L47.57,15c-1.27-1.71-2.71-3.65-6.21-3.65h-15c-3.48,0-4.87,1.85-6.22,3.64l-2.89,3.86H12.43a5.36,5.36,0,0,0-5.36,5.35V55.28a5.37,5.37,0,0,0,5.36,5.36H59.57a5.37,5.37,0,0,0,5.36-5.36V24.21A5.36,5.36,0,0,0,59.57,18.86ZM33.86,53.14A13.93,13.93,0,1,1,47.79,39.21,13.93,13.93,0,0,1,33.86,53.14ZM58.5,27.43H53.14a1.07,1.07,0,0,1,0-2.14H58.5a1.07,1.07,0,0,1,0,2.14Z"/></g></svg>