<?xml version="1.0" encoding="utf-8"?>
<!-- Generator: Adobe Illustrator 22.1.0, SVG Export Plug-In . SVG Version: 6.00 Build 0)  -->
<svg version="1.2" baseProfile="tiny" id="圖層_1"
	 xmlns="http://www.w3.org/2000/svg" xmlns:xlink="http://www.w3.org/1999/xlink" x="0px" y="0px" viewBox="0 0 40 40"
	 xml:space="preserve">
<rect x="6.2" y="6.2" fill="#FFFFFF" width="3.9" height="3.9"/>
<rect x="10.1" y="6.2" fill="#FFFFFF" width="3.9" height="3.9"/>
<rect x="14.1" y="6.2" fill="#FFFFFF" width="4" height="3.9"/>
<rect x="6.2" y="10.1" fill="#FFFFFF" width="3.9" height="3.9"/>
<rect x="14.1" y="10.1" fill="#FFFFFF" width="4" height="3.9"/>
<rect x="6.2" y="14.1" fill="#FFFFFF" width="3.9" height="4"/>
<rect x="10.1" y="14.1" fill="#FFFFFF" width="3.9" height="4"/>
<rect x="14.1" y="14.1" fill="#FFFFFF" width="4" height="4"/>
<rect x="22" y="6.2" fill="#FFFFFF" width="4" height="3.9"/>
<rect x="25.9" y="6.2" fill="#FFFFFF" width="4" height="3.9"/>
<rect x="29.9" y="6.2" fill="#FFFFFF" width="3.9" height="3.9"/>
<rect x="22" y="10.1" fill="#FFFFFF" width="4" height="3.9"/>
<rect x="29.9" y="10.1" fill="#FFFFFF" width="3.9" height="3.9"/>
<rect x="22" y="14.1" fill="#FFFFFF" width="4" height="4"/>
<rect x="25.9" y="14.1" fill="#FFFFFF" width="4" height="4"/>
<rect x="29.9" y="14.1" fill="#FFFFFF" width="3.9" height="4"/>
<rect x="6.2" y="22" fill="#FFFFFF" width="3.9" height="4"/>
<rect x="10.1" y="22" fill="#FFFFFF" width="3.9" height="4"/>
<rect x="14.1" y="22" fill="#FFFFFF" width="4" height="4"/>
<rect x="6.2" y="25.9" fill="#FFFFFF" width="3.9" height="4"/>
<rect x="14.1" y="25.9" fill="#FFFFFF" width="4" height="4"/>
<rect x="6.2" y="29.9" fill="#FFFFFF" width="3.9" height="3.9"/>
<rect x="10.1" y="29.9" fill="#FFFFFF" width="3.9" height="3.9"/>
<rect x="14.1" y="29.9" fill="#FFFFFF" width="4" height="3.9"/>
<rect x="22" y="22" fill="#FFFFFF" width="4" height="4"/>
<rect x="25.9" y="25.9" fill="#FFFFFF" width="4" height="4"/>
<rect x="29.9" y="22" fill="#FFFFFF" width="3.9" height="4"/>
<rect x="22" y="29.9" fill="#FFFFFF" width="4" height="3.9"/>
<rect x="29.9" y="29.9" fill="#FFFFFF" width="3.9" height="3.9"/>
<path fill="#FFFFFF" d="M34,37H6c-1.7,0-3-1.3-3-3V6c0-1.7,1.3-3,3-3h28c1.7,0,3,1.3,3,3v28C37,35.7,35.7,37,34,37z M0,3v34
	c0,1.7,1.3,3,3,3h34c1.7,0,3-1.3,3-3V3c0-1.7-1.3-3-3-3H3C1.3,0,0,1.3,0,3z"/>
</svg>
