<svg id="圖層_1" data-name="圖層 1" xmlns="http://www.w3.org/2000/svg" viewBox="0 0 24 24"><defs><style>.cls-1{fill:#fff;}</style></defs><g id="Group_488" data-name="Group 488"><g id="Group_13" data-name="Group 13"><path id="Path_39" data-name="Path 39" class="cls-1" d="M12,24A12,12,0,1,1,24,12,12,12,0,0,1,12,24ZM12,1.33A10.67,10.67,0,1,0,22.67,12h0A10.69,10.69,0,0,0,12,1.33Z"/></g><g id="Group_16" data-name="Group 16"><g id="Group_14" data-name="Group 14"><circle id="Ellipse_2" data-name="Ellipse 2" class="cls-1" cx="12.07" cy="8.34" r="3.3"/></g><g id="Group_15" data-name="Group 15"><path id="Path_40" data-name="Path 40" class="cls-1" d="M12.07,12.37a7.34,7.34,0,0,0-7.34,7.34c0,.22,0,.43,0,.65,1.09,1.61,4.47,3,7.19,3s6.1-1.35,7.42-3c0-.22,0-.43,0-.65a7.34,7.34,0,0,0-7.34-7.34Z"/></g></g></g></svg>