<?xml version="1.0" encoding="utf-8"?>
<!-- Generator: Adobe Illustrator 22.1.0, SVG Export Plug-In . SVG Version: 6.00 Build 0)  -->
<svg version="1.1" id="圖層_1" xmlns="http://www.w3.org/2000/svg" xmlns:xlink="http://www.w3.org/1999/xlink" x="0px" y="0px"
	 viewBox="0 0 117 66" style="enable-background:new 0 0 117 66;" xml:space="preserve">
<style type="text/css">
	.st0{fill:#FFFFFF;}
</style>
<g id="Component_13_4">
	<g id="Group_1">
		<path id="Path_1" class="st0" d="M74.8,43l-7.1-7.1c-0.7-0.7-1.9-0.7-2.6,0l-1.3,1.3c-0.7,0.7-0.7,1.9,0,2.6c0,0,0,0,0,0l7.1,7.1
			c0.5,0.5,1.1,0.7,1.8,0.7c0.3,0,0.6-0.1,0.9-0.2h0.1l1.6-1.6l0.1-0.1C75.6,44.8,75.5,43.7,74.8,43z"/>
		<path id="Path_2" class="st0" d="M54.6,14.5c-6.9,0-12.5,5.5-12.5,12.4c0,6.9,5.5,12.5,12.4,12.5S67,33.8,67,27c0,0,0,0,0,0
			C67,20.1,61.5,14.5,54.6,14.5z M53.4,19.6c-0.1,0.2-0.3,0.4-0.6,0.5c-3.8,1-6,4.9-5,8.7c0.2,0.6,0.4,1.2,0.7,1.7
			c0.2,0.5,0,1.1-0.5,1.3c-0.4,0.2-0.9,0-1.2-0.3c-2.5-4.3-1-9.9,3.3-12.4c0,0,0,0,0,0c0.7-0.4,1.4-0.7,2.2-0.9
			c0.3-0.1,0.5,0,0.8,0.1C53.6,18.5,53.7,19.1,53.4,19.6L53.4,19.6z"/>
	</g>
</g>
</svg>
