<?xml version="1.0" encoding="utf-8"?>
<!-- Generator: Adobe Illustrator 22.1.0, SVG Export Plug-In . SVG Version: 6.00 Build 0)  -->
<svg version="1.2" baseProfile="tiny" id="圖層_1"
	 xmlns="http://www.w3.org/2000/svg" xmlns:xlink="http://www.w3.org/1999/xlink" x="0px" y="0px" viewBox="0 0 40 40"
	 xml:space="preserve">
<path fill="#FFFFFF" d="M36.9,7.4H23.6L25,8.3L9.8,19.9v-5.7h-3v23.3c0,1.4,1.1,2.5,2.4,2.5h27.6c1.4,0,2.5-1.1,2.5-2.5V9.9
	C39.4,8.5,38.3,7.4,36.9,7.4z M32.2,19.1h-0.3c-0.8,0-1.5,0-2.3,0c-1.1,0-1.9,0.4-1.9,1.8c0,1,0,3.2,0,3.2s2.5,0,3.6,0h0.9
	c-0.2,1.5-0.4,3-0.6,4.5h-3.9v8.9H23v-8.9h-3.9v-4.5H23v-0.3c0-0.9,0-1.8,0-2.7c0-0.6,0-1.2,0.1-1.7c0.2-1.3,0.9-2.6,2-3.4
	c1-0.7,2.2-1,3.4-1c0.8,0,1.6,0,2.4,0.1c0.4,0,0.9,0.1,1.3,0.1L32.2,19.1z"/>
<path fill="#FFFFFF" d="M10.7,4.9V0l12.8,8.4l-12.8,9.7V13c0,0-2.3,0-4.5,0c-1.7,0-2.8-0.1-4,1S1,18.2,1,18.2H0.6c0,0,0.1-3,0-9
	c0-3.7,2.2-4.2,4.2-4.3C6.5,4.8,10.7,4.9,10.7,4.9z"/>
</svg>
