<svg id="圖層_1" data-name="圖層 1" xmlns="http://www.w3.org/2000/svg" viewBox="0 0 16 16"><defs><style>.cls-1{fill:#005ba9;}.cls-2{fill:#fff;}</style></defs><g id="Group_40" data-name="Group 40"><circle id="Ellipse_10" data-name="Ellipse 10" class="cls-1" cx="8.1" cy="8.06" r="8"/><path id="Path_70" data-name="Path 70" class="cls-2" d="M10.5,3.13,9.57,2.2,2.24,9.52l.94.94A2.06,2.06,0,0,1,5.7,11.9,2,2,0,0,1,5.7,13l.94.94L14,6.59,13,5.66A2.07,2.07,0,0,1,10.5,4.21,2.19,2.19,0,0,1,10.5,3.13Zm-.81,6,.35.36L9.56,10l-.35-.35a1.18,1.18,0,0,1-1.52.06l.57-.57A.63.63,0,0,0,9.09,9c.3-.31.27-.56.08-.75s-.44-.19-.93.08c-.91.49-1.36.43-1.76,0a1,1,0,0,1,0-1.42l-.29-.29.48-.48.27.27a1.09,1.09,0,0,1,1.42,0L7.75,7a.51.51,0,0,0-.7.12c-.28.28-.18.51,0,.63s.38.16,1-.15c.85-.46,1.33-.37,1.73,0a1.12,1.12,0,0,1,0,1.54Z"/></g></svg>