<?xml version="1.0" encoding="utf-8"?>
<!-- Generator: Adobe Illustrator 22.1.0, SVG Export Plug-In . SVG Version: 6.00 Build 0)  -->
<svg version="1.1" id="圖層_1" xmlns="http://www.w3.org/2000/svg" xmlns:xlink="http://www.w3.org/1999/xlink" x="0px" y="0px"
	 viewBox="0 0 32 32" style="enable-background:new 0 0 32 32;" xml:space="preserve">
<style type="text/css">
	.st0{fill:#FFFFFF;}
</style>
<g id="Component_13_4">
	<g id="Group_1">
		<path id="Path_1" class="st0" d="M30.3,27.7l-6.5-6.5c-0.7-0.7-1.7-0.7-2.3,0l-1.2,1.2c-0.7,0.7-0.7,1.7,0,2.3l6.5,6.5
			c0.5,0.4,1,0.7,1.6,0.7c0.3,0,0.6-0.1,0.8-0.2h0.1l1.4-1.4v-0.1C31.2,29.4,31,28.4,30.3,27.7z"/>
		<path id="Path_2" class="st0" d="M12.2,2.1C6.1,2.1,1,7.2,1,13.3s5.1,11.2,11.2,11.2s11.2-5.1,11.2-11.2l0,0
			C23.5,7.2,18.4,2.1,12.2,2.1z M11.1,6.7c-0.1,0.2-0.3,0.4-0.6,0.4C7.2,8,5.1,11.5,6,14.8l0,0c0.2,0.6,0.4,1,0.7,1.6
			c0.1,0.5-0.2,1-0.7,1.1c-0.3,0.1-0.6,0-0.8-0.2C2.9,13.4,4.2,8.5,8.1,6.2c0.7-0.4,1.3-0.7,2-0.8c0.2-0.1,0.5,0,0.7,0.1
			C11.2,5.7,11.4,6.2,11.1,6.7L11.1,6.7z"/>
	</g>
</g>
</svg>
