<svg id="圖層_1" data-name="圖層 1" xmlns="http://www.w3.org/2000/svg" viewBox="0 0 50 50"><defs><style>.cls-1{fill:#fff;}.cls-2{fill:#cfcfcf;}.cls-3{fill:#4679bc;}.cls-4{fill:#35a053;}.cls-5{fill:#f0b617;}.cls-6{fill:#dd4435;}</style></defs><g id="Group_472" data-name="Group 472"><g id="Rectangle_201" data-name="Rectangle 201"><rect class="cls-1" x="0.49" y="0.49" width="49.02" height="49.02" rx="9.8"/><path class="cls-2" d="M39.71,50H10.29A10.31,10.31,0,0,1,0,39.71V10.29A10.31,10.31,0,0,1,10.29,0H39.71A10.31,10.31,0,0,1,50,10.29V39.71A10.31,10.31,0,0,1,39.71,50ZM10.29,1A9.33,9.33,0,0,0,1,10.29V39.71A9.33,9.33,0,0,0,10.29,49H39.71A9.33,9.33,0,0,0,49,39.71V10.29A9.33,9.33,0,0,0,39.71,1Z"/></g><path class="cls-3" d="M42.69,25.4a15.51,15.51,0,0,0-.38-3.69h-17v6.7h10a8.83,8.83,0,0,1-3.69,5.85l0,.23,5.36,4.15.37,0A17.65,17.65,0,0,0,42.69,25.4"/><path class="cls-4" d="M25.36,43.05a17.24,17.24,0,0,0,12-4.37l-5.69-4.42a10.65,10.65,0,0,1-6.26,1.81,10.88,10.88,0,0,1-10.27-7.5l-.21,0L9.31,32.9l-.07.2a18,18,0,0,0,16.12,9.95"/><path class="cls-5" d="M15.09,28.57a11.14,11.14,0,0,1-.6-3.57,11.71,11.71,0,0,1,.58-3.57v-.24L9.42,16.81l-.18.09a18,18,0,0,0,0,16.2l5.85-4.53"/><path class="cls-6" d="M25.36,13.93a10,10,0,0,1,7,2.69l5.09-5A17.36,17.36,0,0,0,25.36,7a18,18,0,0,0-16.12,10l5.83,4.53a10.92,10.92,0,0,1,10.29-7.5"/></g></svg>