<svg id="圖層_1" data-name="圖層 1" xmlns="http://www.w3.org/2000/svg" viewBox="0 0 50 50"><defs><style>.cls-1{fill:#4b71b2;}.cls-2{fill:#fff;fill-rule:evenodd;}</style></defs><g id="Group_474" data-name="Group 474"><rect id="Rectangle_202" data-name="Rectangle 202" class="cls-1" width="50" height="50" rx="10"/><path id="Path_981" data-name="Path 981" class="cls-2" d="M35.17,16.61c1.25,0,2.49,0,3.74,0h.51V10.13c-.66-.07-1.36-.17-2.05-.2-1.28-.06-2.56-.12-3.84-.1a9.38,9.38,0,0,0-5.4,1.68,8.08,8.08,0,0,0-3.26,5.4,19.91,19.91,0,0,0-.22,2.78c0,1.45,0,2.9,0,4.36v.54H18.45v7.23h6.16V50h7.52V31.86h6.14c.32-2.41.62-4.79.95-7.27H37.84c-1.75,0-5.76,0-5.76,0s0-3.58.06-5.14C32.2,17.32,33.47,16.67,35.17,16.61Z"/></g></svg>