<svg id="圖層_1" data-name="圖層 1" xmlns="http://www.w3.org/2000/svg" xmlns:xlink="http://www.w3.org/1999/xlink" viewBox="0 0 13 13"><defs><style>.cls-1{fill:url(#未命名漸層_11);}</style><linearGradient id="未命名漸層_11" x1="-314.61" y1="1990.83" x2="-313.91" y2="1990.1" gradientTransform="matrix(12.43, 0, 0, -11.89, 3911.95, 23676.78)" gradientUnits="userSpaceOnUse"><stop offset="0" stop-color="#fbce00"/><stop offset="0.07" stop-color="#f9c300"/><stop offset="0.23" stop-color="#f5af00"/><stop offset="0.42" stop-color="#f2a000"/><stop offset="0.65" stop-color="#f19700"/><stop offset="1" stop-color="#f19500"/></linearGradient></defs><path id="Path_215" data-name="Path 215" class="cls-1" d="M7.09.92,8.65,4.1l3.5.51a.65.65,0,0,1,.56.74.66.66,0,0,1-.19.37L10,8.19l.6,3.49a.66.66,0,0,1-.53.76.69.69,0,0,1-.42-.07L6.5,10.72,3.37,12.37a.66.66,0,0,1-.89-.27.68.68,0,0,1-.06-.42L3,8.19.48,5.72a.65.65,0,0,1,0-.92.66.66,0,0,1,.37-.19l3.5-.51L5.91.92a.65.65,0,0,1,.87-.3A.65.65,0,0,1,7.09.92Z"/></svg>