<svg id="圖層_1" data-name="圖層 1" xmlns="http://www.w3.org/2000/svg" xmlns:xlink="http://www.w3.org/1999/xlink" viewBox="0 0 178 46"><defs><style>.cls-1{fill:url(#未命名漸層_12);}.cls-2{isolation:isolate;}.cls-3{fill:#fff;}</style><linearGradient id="未命名漸層_12" x1="-1.04" y1="1789.22" x2="-1.04" y2="1790.22" gradientTransform="matrix(178, 0, 0, -46, 274.4, 82350.09)" gradientUnits="userSpaceOnUse"><stop offset="0" stop-color="#0d3386"/><stop offset="0.37" stop-color="#084c9c"/><stop offset="1" stop-color="#0080ca"/></linearGradient></defs><rect id="Rectangle_55" data-name="Rectangle 55" class="cls-1" width="178" height="46" rx="10"/><g id="點我查看更多" class="cls-2"><g class="cls-2"><path class="cls-3" d="M23.47,27a14.85,14.85,0,0,1-1.08,4.67l-1.67-.77a20.26,20.26,0,0,0,1-4.3Zm7.66-.86H21V24.31H25.2V22.83H21.5V21.06h3.7v-1.3H21.52v-8.1h9.1v8.1H27v1.3h3.62v1.77H27v1.48h4.1Zm-5.93-8V13.38H23.07v4.74Zm-.47-.84-.93.32a24.26,24.26,0,0,0-.42-3.32l.91-.32A24.73,24.73,0,0,1,24.73,17.28Zm1.33,13.83-1.77.23a17.8,17.8,0,0,0-.42-4.23l1.65-.18A21.17,21.17,0,0,1,26.06,31.11Zm2.81-.46-1.72.27A15.84,15.84,0,0,0,26.22,27l1.7-.23A21.16,21.16,0,0,1,28.87,30.65Zm.25-12.53V13.38H27v4.74Zm-.27-3.88a18.86,18.86,0,0,1-.66,3.39l-.91-.31A18.56,18.56,0,0,0,27.89,14ZM31.33,30l-1.66.39a19.84,19.84,0,0,0-1-3.54l1.61-.35A17.31,17.31,0,0,1,31.33,30Zm9.86-13.36H36.62v3.89h3.85V31.5h-2V30.21H33.92V31.5h-2V20.57h2.66V11.25h2v3.48h4.57ZM38.44,28.24V22.5H33.92v5.74Z"/><path class="cls-3" d="M64.56,26.93a11,11,0,0,1-1.2,3.42,2.19,2.19,0,0,1-1.91,1.22q-2,0-3.88-3.48a28.27,28.27,0,0,1-4.29,2.6L52.12,29a27,27,0,0,0,4.71-2.77A38.21,38.21,0,0,1,56,19.13H51.19v3.21c1.16-.23,2.44-.56,3.86-1l0,2c-1.4.41-2.69.74-3.9,1V29.5a2,2,0,0,1-.36,1.32,1.67,1.67,0,0,1-.92.56,9.86,9.86,0,0,1-2,.13c-.72,0-1.42,0-2.11-.06l-.72-2.2c1,.05,1.89.07,2.56.07a4.42,4.42,0,0,0,1.24-.09.45.45,0,0,0,.18-.42v-4q-2.49.48-4.56.69l-.38-1.92c1.5-.17,3.15-.43,4.94-.8V19.13H44.2v-2h4.87V14.53c-1,.16-2.35.31-3.94.45l-.93-1.93A34.17,34.17,0,0,0,54,11.22l1.18,1.72a30.92,30.92,0,0,1-4,1.15v3.07H56c0-.93,0-2.91,0-5.91H58q0,3,0,5.91h6.33v2H58.11a49.93,49.93,0,0,0,.42,5.43A20.33,20.33,0,0,0,61.43,20l1.81.91a19.54,19.54,0,0,1-4.07,5.78,9.27,9.27,0,0,0,1.24,2c.38.43.68.64.88.64.53,0,1-1.2,1.42-3.58Zm-.81-11.74-1.68,1.25a16.7,16.7,0,0,0-3-3.37l1.6-1.34A18.54,18.54,0,0,1,63.75,15.19Z"/><path class="cls-3" d="M87.85,18.92,86.7,20.71c-.49-.32-1-.6-1.46-.86v7.73H69.76V20.13a11.34,11.34,0,0,1-1.51.67L67.19,19a31.31,31.31,0,0,0,7.66-4H67.39V13.07h9V11.22h2.07v1.85h9V15h-9A53.25,53.25,0,0,1,87.85,18.92ZM87.58,31H67.43V29.12H87.58ZM76.44,19.53v-3.3a27.66,27.66,0,0,1-5.31,3.3Zm6.69,3.15V21.41H71.88v1.27Zm0,3.07V24.4H71.88v1.35Zm1.44-6.22A41.64,41.64,0,0,0,78.51,17v2.58Z"/><path class="cls-3" d="M110.68,19.62H98.84L98,20.93h10.25V31.5h-2.1V30.43H97.55V31.5H95.43V24a27.8,27.8,0,0,1-3.51,3.11l-1.43-1.58a23.76,23.76,0,0,0,6-5.94H90.81V18h6.63c.24-.41.46-.85.68-1.32H91.7V15.15h7.14l.46-1.28c-3.37.09-5.62.14-6.73.15l-.78-1.8c1,0,1.92,0,2.84,0a73.67,73.67,0,0,0,13.66-1.16l1.28,1.59a65.25,65.25,0,0,1-8,1q-.08.29-.54,1.44h8.84V16.7H100.4c-.24.5-.47.94-.7,1.32h11Zm-4.56,4.06V22.57H97.55v1.11Zm0,2.46v-1H97.55v1Zm0,2.7V27.62H97.55v1.22Z"/><path class="cls-3" d="M134.29,29.58l-.86,1.92a31.08,31.08,0,0,1-11.74-2.25,18,18,0,0,1-7.25,2.4l-.88-1.91a16.62,16.62,0,0,0,6-1.5,16.14,16.14,0,0,1-3-2.28l1.58-1.2A15.06,15.06,0,0,0,121.24,27a4.46,4.46,0,0,0,1.32-2.81h-6.91V15h7.24v-1.6H114V11.54h19.86v1.88h-8.89V15h7.13v9.15h-7.45a7.08,7.08,0,0,1-1.37,3.65A35,35,0,0,0,134.29,29.58Zm-11.4-11V16.9h-5.21v1.72Zm-.12,1.84h-5.09v1.83h5.07C122.77,22.06,122.77,21.45,122.77,20.46ZM130,22.29V20.46h-5.15c0,.56-.07,1.17-.07,1.83Zm0-3.67V16.9H124.9v1.72Z"/><path class="cls-3" d="M154.43,14.64q-5.66,5.92-16.44,8l-1-1.84a35.75,35.75,0,0,0,8.22-2.13A17.11,17.11,0,0,0,142,16a31.71,31.71,0,0,1-3.58,1.68l-1.23-1.55A23.42,23.42,0,0,0,145.3,11l1.95.75a10.51,10.51,0,0,1-1,1.06h8.2Zm2.6,8.28a6.15,6.15,0,0,1-1.39,2,15.32,15.32,0,0,1-3,2.76,20,20,0,0,1-3.75,2,23.41,23.41,0,0,1-4.7,1.35,29.91,29.91,0,0,1-5.45.51l-.84-1.92A23.89,23.89,0,0,0,148,27.86a18.06,18.06,0,0,0-3.23-2.92,27.87,27.87,0,0,1-4.85,1.88l-1.29-1.66a23.8,23.8,0,0,0,11-6.12l2,.72a15.92,15.92,0,0,1-1.22,1.3H157Zm-5.44-8.28H144.1c-.07.06-.21.15-.39.27a27.44,27.44,0,0,1,3.43,2.85A20.78,20.78,0,0,0,151.59,14.64Zm3.21,8.28h-6.69c-.16.14-.69.49-1.57,1.07a22.77,22.77,0,0,1,3.36,3A14,14,0,0,0,154.8,22.92Z"/></g></g></svg>