<?xml version="1.0" encoding="utf-8"?>
<!-- Generator: Adobe Illustrator 22.1.0, SVG Export Plug-In . SVG Version: 6.00 Build 0)  -->
<svg version="1.2" baseProfile="tiny" id="圖層_1"
	 xmlns="http://www.w3.org/2000/svg" xmlns:xlink="http://www.w3.org/1999/xlink" x="0px" y="0px" viewBox="0 0 40 40"
	 xml:space="preserve">
<path fill="#FFFFFF" d="M36.9,7.4H23.5L25,8.3l-6,4.5c1.3-0.4,2.6-0.6,4-0.6c6.6,0,12,4.4,12,9.7c0,2.3-1,4.4-2.6,6l0,0
	c-2.8,2.8-5.9,5.2-9.4,7c-1.3,0.5-1.1-0.3-1-0.7l0.2-1c0.1-0.4,0.1-0.7,0-1.1c-0.1-0.3-0.7-0.5-1.1-0.6c-5.8-0.8-10-4.8-10-9.6
	c0-1.3,0.4-2.6,1-3.8l-2.4,1.6v-5.7h-3v23.3c0,1.4,1.1,2.5,2.4,2.5h27.7c1.4,0,2.5-1.1,2.5-2.5V9.9C39.4,8.5,38.2,7.4,36.9,7.4z"/>
<path fill="#FFFFFF" d="M16.1,19.4h-0.8c-0.1,0-0.2,0.1-0.2,0.2c0,0,0,0,0,0v5.2l0,0c0,0.1,0,0.1,0.1,0.2l0,0c0,0,0.1,0.1,0.2,0.1
	h3.3c0.1,0,0.2-0.1,0.2-0.2V24c0-0.1-0.1-0.2-0.2-0.2c0,0,0,0,0,0h-2.3v-4.1C16.3,19.5,16.2,19.4,16.1,19.4
	C16.1,19.4,16.1,19.4,16.1,19.4z"/>
<path fill="#FFFFFF" d="M19.8,19.4h0.9c0.1,0,0.2,0.1,0.2,0.2v5.2c0,0.1-0.1,0.2-0.2,0.2h-0.9c-0.1,0-0.2-0.1-0.2-0.2v-5.2
	C19.5,19.5,19.7,19.4,19.8,19.4z"/>
<path fill="#FFFFFF" d="M31,20.7c0.1,0,0.2-0.1,0.2-0.2c0,0,0,0,0,0v-0.8c0-0.1-0.1-0.2-0.2-0.2h-3.3c-0.1,0-0.1,0-0.2,0.1l0,0
	c0,0-0.1,0.1-0.1,0.2l0,0v5.2l0,0c0,0.1,0,0.1,0.1,0.2l0,0c0,0,0.1,0.1,0.2,0.1H31c0.1,0,0.2-0.1,0.2-0.2V24c0-0.1-0.1-0.2-0.2-0.2
	c0,0,0,0,0,0h-2.3v-0.9H31c0.1,0,0.2-0.1,0.2-0.2v-0.8c0-0.1-0.1-0.2-0.2-0.2h-2.3v-0.9L31,20.7z"/>
<path fill="#FFFFFF" d="M22.7,25.1c0.1,0,0.2-0.1,0.2-0.2c0,0,0,0,0,0v-3.1l2.4,3.2c0,0,0,0,0.1,0h1c0.1,0,0.2-0.1,0.2-0.2
	c0,0,0,0,0,0v-5.2c0-0.1-0.1-0.2-0.2-0.2c0,0,0,0,0,0h-0.8c-0.1,0-0.2,0.1-0.2,0.2v3.1L23,19.5l0,0h-1c-0.1,0-0.2,0.1-0.2,0.2
	c0,0,0,0,0,0V25c0,0.1,0.1,0.2,0.2,0.2c0,0,0,0,0,0L22.7,25.1z"/>
<path fill="#FFFFFF" d="M10.7,4.9V0l12.8,8.4l-12.8,9.7V13c0,0-2.3,0-4.5,0c-1.7,0-2.8-0.1-4,1S1,18.2,1,18.2H0.6c0,0,0.1-3,0-9
	c0-3.7,2.2-4.2,4.2-4.3C6.5,4.8,10.7,4.9,10.7,4.9z"/>
</svg>
