<svg id="圖層_1" data-name="圖層 1" xmlns="http://www.w3.org/2000/svg" viewBox="0 0 27 27"><defs><style>.cls-1{fill:#fff;}</style></defs><g id="Group_23" data-name="Group 23"><g id="Group_18" data-name="Group 18"><path id="Path_41" data-name="Path 41" class="cls-1" d="M13.5,27A13.5,13.5,0,1,1,27,13.5,13.49,13.49,0,0,1,13.5,27Zm0-25.5a12,12,0,1,0,12,12,12,12,0,0,0-12-12Z"/></g><g id="Group_19" data-name="Group 19"><path id="Path_42" data-name="Path 42" class="cls-1" d="M18,19.68H10.4a.75.75,0,0,1-.72-.52L6.6,9.6H4.46a.75.75,0,1,1,0-1.5H7.14a.77.77,0,0,1,.72.52l.74,2.3H21a.76.76,0,0,1,.75.76.71.71,0,0,1-.06.28l-3,7.26A.75.75,0,0,1,18,19.68Zm-7.1-1.5h6.59l2.36-5.76H9.08Z"/></g><g id="Group_20" data-name="Group 20"><circle id="Ellipse_4" data-name="Ellipse 4" class="cls-1" cx="10.88" cy="21.37" r="1.13"/></g><g id="Group_21" data-name="Group 21"><circle id="Ellipse_5" data-name="Ellipse 5" class="cls-1" cx="17.25" cy="21.37" r="1.13"/></g><g id="Group_22" data-name="Group 22"><path id="Path_43" data-name="Path 43" class="cls-1" d="M8.57,11.67l2.3,6.88h6.8L20.25,12Z"/></g></g></svg>