<?xml version="1.0" encoding="utf-8"?>
<!-- Generator: Adobe Illustrator 22.1.0, SVG Export Plug-In . SVG Version: 6.00 Build 0)  -->
<svg version="1.2" baseProfile="tiny" id="圖層_1"
	 xmlns="http://www.w3.org/2000/svg" xmlns:xlink="http://www.w3.org/1999/xlink" x="0px" y="0px" viewBox="0 0 27 27"
	 xml:space="preserve">
<g>
	<path fill="#FFFFFF" d="M24.8,6.4H8.2l-1-3.1c-0.1-0.4-0.5-0.7-1-0.7H2.6c-0.6,0-1,0.5-1,1s0.5,1,1,1h2.9l4.1,12.8
		c0.1,0.4,0.5,0.7,1,0.7h10.2c0.4,0,0.8-0.2,0.9-0.6l4-9.7c0.1-0.1,0.1-0.2,0.1-0.4C25.8,6.9,25.4,6.4,24.8,6.4z"/>
	<path fill="#FFFFFF" d="M11.2,18.9c-0.8,0-1.5,0.7-1.5,1.5c0,0.8,0.7,1.5,1.5,1.5c0.8,0,1.5-0.7,1.5-1.5
		C12.8,19.6,12.1,18.9,11.2,18.9z"/>
	<path fill="#FFFFFF" d="M19.8,18.9c-0.8,0-1.5,0.7-1.5,1.5c0,0.8,0.7,1.5,1.5,1.5c0.8,0,1.5-0.7,1.5-1.5
		C21.3,19.6,20.6,18.9,19.8,18.9z"/>
</g>
</svg>
