<svg id="圖層_1" data-name="圖層 1" xmlns="http://www.w3.org/2000/svg" viewBox="0 0 50 50"><defs><style>.cls-1{fill:#00a93a;}.cls-2{fill:#fff;}</style></defs><g id="Group_473" data-name="Group 473"><rect id="Rectangle_203" data-name="Rectangle 203" class="cls-1" width="50" height="50" rx="10"/><path id="Path_980" data-name="Path 980" class="cls-2" d="M44.69,22.5C44.69,13.93,36.08,7,25.49,7S6.28,13.93,6.28,22.5c0,7.69,6.83,14.13,16.07,15.34.62.14,1.47.41,1.69.95a3.89,3.89,0,0,1,.06,1.73l-.28,1.64c-.08.48-.38,1.89,1.67,1s11.06-6.5,15.09-11.12h0C43.36,29,44.69,25.93,44.69,22.5Zm-26,4.58a.37.37,0,0,1-.37.37H13a.34.34,0,0,1-.25-.09h0a.32.32,0,0,1-.1-.26h0V18.73a.37.37,0,0,1,.37-.37h1.35a.38.38,0,0,1,.37.37h0v6.63h3.66a.38.38,0,0,1,.38.38h0Zm3.25,0a.37.37,0,0,1-.38.37H20.24a.37.37,0,0,1-.38-.37V18.73a.38.38,0,0,1,.38-.37h1.34a.38.38,0,0,1,.38.37h0Zm9.27,0a.37.37,0,0,1-.37.37H29.3a.43.43,0,0,1-.09-.1l-3.84-5.17v4.95a.37.37,0,0,1-.38.37H23.65a.37.37,0,0,1-.38-.37V18.73a.38.38,0,0,1,.38-.37H25.2v0h0l0,0h0l0,0h0l0,0,3.84,5.16V18.73a.37.37,0,0,1,.37-.37h1.35a.38.38,0,0,1,.37.37h0Zm7.44-7a.37.37,0,0,1-.37.37H34.64v1.42H38.3a.37.37,0,0,1,.37.37v1.34a.37.37,0,0,1-.37.37H34.64v1.42H38.3a.37.37,0,0,1,.37.37h0v1.34a.37.37,0,0,1-.37.37H32.92a.35.35,0,0,1-.26-.09h0a.4.4,0,0,1-.1-.26h0V18.73h0a.39.39,0,0,1,.1-.25h0a.4.4,0,0,1,.26-.1H38.3a.37.37,0,0,1,.37.37h0Z"/></g></svg>