<svg id="圖層_1" data-name="圖層 1" xmlns="http://www.w3.org/2000/svg" viewBox="0 0 27 27"><defs><style>.cls-1{fill:#fff;}</style></defs><g id="Group_17" data-name="Group 17"><g id="Group_13" data-name="Group 13"><path id="Path_39" data-name="Path 39" class="cls-1" d="M13.5,27A13.5,13.5,0,1,1,27,13.5,13.49,13.49,0,0,1,13.5,27Zm0-25.5a12,12,0,1,0,12,12,12,12,0,0,0-12-12Z"/></g><g id="Group_16" data-name="Group 16"><g id="Group_14" data-name="Group 14"><circle id="Ellipse_2" data-name="Ellipse 2" class="cls-1" cx="13.37" cy="9.65" r="3.66"/></g><g id="Group_15" data-name="Group 15"><path id="Path_40" data-name="Path 40" class="cls-1" d="M13.5,14.12a8.13,8.13,0,0,0-8.13,8.13c0,.24,0,.48,0,.72,1.21,1.78,5,3.28,8,3.28s6.75-1.5,8.21-3.28c0-.24,0-.48,0-.72a8.13,8.13,0,0,0-8.13-8.13Z"/></g></g></g></svg>