<svg id="圖層_1" data-name="圖層 1" xmlns="http://www.w3.org/2000/svg" viewBox="0 0 24 24"><defs><style>.cls-1{fill:#fff;}</style></defs><g id="Group_926" data-name="Group 926"><g id="Group_927" data-name="Group 927"><g id="Group_926-2" data-name="Group 926-2"><path id="Path_1215" data-name="Path 1215" class="cls-1" d="M11.12,20.37a1.25,1.25,0,0,1,0-1.76,1.27,1.27,0,0,1,.94-.38,1.16,1.16,0,0,1,.89.35,1.34,1.34,0,0,1,0,1.79,1.29,1.29,0,0,1-1.77,0Zm.14-3.47a.2.2,0,0,1-.06-.14L11,9.88a.2.2,0,0,1,.19-.19H13a.2.2,0,0,1,.19.19L13,16.76a.18.18,0,0,1-.19.19H11.4a.17.17,0,0,1-.14-.05Z"/></g></g><g id="Group_928" data-name="Group 928"><path id="Path_1216" data-name="Path 1216" class="cls-1" d="M22.3,24H1.7A1.7,1.7,0,0,1,.23,21.45L10.53,3.61A1.7,1.7,0,0,1,12.85,3a1.68,1.68,0,0,1,.62.62l10.3,17.84A1.7,1.7,0,0,1,22.3,24ZM11.67,4.27,1.37,22.11a.37.37,0,0,0,.14.52.41.41,0,0,0,.19.05H22.3a.38.38,0,0,0,.38-.38.3.3,0,0,0-.05-.19L12.33,4.27a.37.37,0,0,0-.52-.14.32.32,0,0,0-.14.14Z"/></g></g></svg>