<svg id="圖層_1" data-name="圖層 1" xmlns="http://www.w3.org/2000/svg" viewBox="0 0 40 40"><defs><style>.cls-1{fill:gray;}</style></defs><path class="cls-1" d="M36.91,7.41H23.56L25,8.35,9.81,19.94V14.26h-3V37.53A2.47,2.47,0,0,0,9.26,40H36.91a2.48,2.48,0,0,0,2.47-2.47V9.88A2.48,2.48,0,0,0,36.91,7.41ZM32.2,19.14h-.32c-.78,0-1.55,0-2.33,0-1.07,0-1.86.44-1.89,1.77,0,1,0,3.21,0,3.21s2.5,0,3.59,0h.86c-.2,1.55-.39,3-.59,4.54H27.65v8.89H23V28.65H19.1V24.14H23V23.8c0-.91,0-1.82,0-2.73a11.21,11.21,0,0,1,.14-1.73,5.06,5.06,0,0,1,2-3.38,5.88,5.88,0,0,1,3.37-1c.8,0,1.6,0,2.4.06.43,0,.87.08,1.28.12Z"/><path class="cls-1" d="M10.66,4.9l0-4.9,12.8,8.43-12.8,9.75V13s-2.31,0-4.46,0c-1.73,0-2.78-.08-4,1S1,18.18,1,18.18H.62s.07-3,0-9C.58,5.45,2.82,5,4.82,4.9,6.53,4.84,10.66,4.9,10.66,4.9Z"/></svg>