<svg id="圖層_1" data-name="圖層 1" xmlns="http://www.w3.org/2000/svg" viewBox="0 0 24 24"><defs><style>.cls-1{fill:#858585;}</style></defs><g id="Group_513" data-name="Group 513"><path id="Subtraction_7" data-name="Subtraction 7" class="cls-1" d="M12.05,24a12,12,0,1,1,12-12A12,12,0,0,1,12.05,24ZM6.72,5.78A1.49,1.49,0,0,0,5.23,7.26v11A1.49,1.49,0,0,0,6.72,19.7H17.38a1.48,1.48,0,0,0,1.48-1.48v-11a1.48,1.48,0,0,0-1.48-1.48H15a.76.76,0,0,0-.7-.6.58.58,0,0,1-.39-.37l-.16-.38a1.23,1.23,0,0,0-1.08-.73h-.89a1.23,1.23,0,0,0-1.09.74l-.15.38a.61.61,0,0,1-.39.36.76.76,0,0,0-.7.59Zm3,11.64H7.59a.6.6,0,0,1-.6-.61V14.65a.61.61,0,0,1,.6-.61H9.75a.61.61,0,0,1,.61.61v2.16A.61.61,0,0,1,9.75,17.42Zm-2-2.58v1.78H9.56V14.84Zm8.77,2.5H12a.56.56,0,0,1,0-1.12h4.61a.56.56,0,0,1,0,1.12Zm0-2.3H12a.56.56,0,0,1,0-1.12h4.61a.56.56,0,0,1,0,1.12Zm0-2.3H12a.57.57,0,0,1-.54-.58.58.58,0,0,1,.54-.54h4.61a.57.57,0,0,1,.53.58.56.56,0,0,1-.53.54Zm-6.8-.09H7.59A.6.6,0,0,1,7,12V9.9a.6.6,0,0,1,.6-.61H9.75a.61.61,0,0,1,.61.61v2.15a.61.61,0,0,1-.61.61Zm-2-2.58v1.79H9.56V10.08Zm8.77.37H12a.56.56,0,1,1,0-1.12h4.61a.56.56,0,0,1,0,1.12ZM14.39,6.58H10a.74.74,0,0,1,0-.26.65.65,0,0,1,.63-.6h.13a.64.64,0,0,0,.6-.67.62.62,0,0,1,.6-.66h.52a.63.63,0,0,1,.6.66.64.64,0,0,0,.6.67h.12a.64.64,0,0,1,.63.6.74.74,0,0,1,0,.26Z"/></g></svg>