<svg id="圖層_1" data-name="圖層 1" xmlns="http://www.w3.org/2000/svg" viewBox="0 0 38 38"><defs><style>.cls-1{fill:#9d9d9e;}</style></defs><g id="Group_41" data-name="Group 41"><g id="Ellipse_7" data-name="Ellipse 7"><path class="cls-1" d="M19,38A19,19,0,1,1,38,19,19,19,0,0,1,19,38ZM19,3A16,16,0,1,0,35,19,16,16,0,0,0,19,3Z"/></g><g id="Path_46" data-name="Path 46"><path class="cls-1" d="M15.88,27.05a1.5,1.5,0,0,1-1.09-2.54L20.05,19l-5.26-5.51A1.5,1.5,0,1,1,17,11.41L23.21,18a1.52,1.52,0,0,1,0,2.08L17,26.59A1.52,1.52,0,0,1,15.88,27.05Z"/></g></g></svg>