<svg id="圖層_1" data-name="圖層 1" xmlns="http://www.w3.org/2000/svg" viewBox="0 0 25 25"><defs><style>.cls-1{fill:#fff;}.cls-2{fill:#ccc;}</style></defs><g id="Component_10_4" data-name="Component 10 4"><g id="Ellipse_11" data-name="Ellipse 11"><circle class="cls-1" cx="12.5" cy="12.5" r="12"/><path class="cls-2" d="M12.5,25A12.5,12.5,0,1,1,25,12.5,12.52,12.52,0,0,1,12.5,25Zm0-24A11.5,11.5,0,1,0,24,12.5,11.51,11.51,0,0,0,12.5,1Z"/></g><g id="Path_369" data-name="Path 369"><path class="cls-2" d="M16.54,6.53l-.66,0A4,4,0,0,0,12.5,8.31,4,4,0,0,0,9.12,6.5l-.67,0C7,6.68,5.35,8,5.14,10.52v.84c.19,2.42,2,5.4,7.36,9.14,5.34-3.74,7.17-6.72,7.36-9.14v-.84C19.65,8,18,6.68,16.54,6.53Z"/></g></g></svg>