<svg id="圖層_1" data-name="圖層 1" xmlns="http://www.w3.org/2000/svg" viewBox="0 0 24 24"><defs><style>.cls-1{fill:#fff;}</style></defs><g id="Group_495" data-name="Group 495"><path id="Subtraction_3" data-name="Subtraction 3" class="cls-1" d="M12,24A12,12,0,1,1,24,12,12,12,0,0,1,12,24ZM4.7,15.88a3.42,3.42,0,0,1,2.42,1A3.47,3.47,0,0,1,8,20.2l1.55,1.56L21.75,9.56,20.2,8A3.42,3.42,0,0,1,16,3.8L14.44,2.25,2.24,14.44,3.8,16A3.42,3.42,0,0,1,4.7,15.88Zm9.72-.7h0l-.58-.58a2.33,2.33,0,0,1-1.38.52,1.82,1.82,0,0,1-1.14-.42l.94-.94a1,1,0,0,0,.56.17,1.1,1.1,0,0,0,.81-.39,1.05,1.05,0,0,0,.38-.73.8.8,0,0,0-.76-.75,2.35,2.35,0,0,0-1,.36,3.8,3.8,0,0,1-1.76.59,1.55,1.55,0,0,1-1.16-.53,1.73,1.73,0,0,1-.05-2.37l-.48-.48.79-.8.46.46a2.16,2.16,0,0,1,1.26-.48,1.83,1.83,0,0,1,1.1.4l-1,1A.9.9,0,0,0,11,10a1.05,1.05,0,0,0-.7.35.91.91,0,0,0-.3.6.75.75,0,0,0,.21.47.57.57,0,0,0,.43.18,2.78,2.78,0,0,0,1.15-.44,3.48,3.48,0,0,1,1.63-.52,1.66,1.66,0,0,1,1.25.56,1.84,1.84,0,0,1,0,2.55l.59.59-.8.8Z"/></g></svg>