<svg id="圖層_1" data-name="圖層 1" xmlns="http://www.w3.org/2000/svg" viewBox="0 0 24 24"><defs><style>.cls-1{fill:#bbb;fill-rule:evenodd;}</style></defs><path class="cls-1" d="M18.57,4H5.39A1.13,1.13,0,0,0,4.22,5.12l2,17.71A1.17,1.17,0,0,0,7.42,24h9.2a1.18,1.18,0,0,0,1.17-1.19l2-17.68A1.15,1.15,0,0,0,18.57,4ZM8.89,21.43a.78.78,0,0,1-.85-.7L6.8,7.21a.78.78,0,0,1,1.55-.15L9.6,20.58A.78.78,0,0,1,8.89,21.43Zm3.58-.65a.73.73,0,0,1-1.46,0V7a.73.73,0,0,1,1.46,0Zm3.29-.05a.78.78,0,1,1-1.55-.15L15.46,7.06a.77.77,0,0,1,.84-.7.78.78,0,0,1,.71.85Z"/><path class="cls-1" d="M19.7,1.45H14.75C14.69.73,14.24,0,13.7,0H10.3c-.54,0-1,.73-1.05,1.45H4.31a.81.81,0,0,0-.77.82c0,.42.34.64.77.64H19.7c.42,0,.76-.22.76-.64A.81.81,0,0,0,19.7,1.45Zm-9.63,0s0-.63.22-.79A5,5,0,0,1,12,.51a8.17,8.17,0,0,1,1.65.08c.43.11.5.86.5.86Z"/></svg>