<?xml version="1.0" encoding="utf-8"?>
<!-- Generator: Adobe Illustrator 22.1.0, SVG Export Plug-In . SVG Version: 6.00 Build 0)  -->
<svg version="1.1" id="圖層_1" xmlns="http://www.w3.org/2000/svg" xmlns:xlink="http://www.w3.org/1999/xlink" x="0px" y="0px"
	 viewBox="0 0 27 27" style="enable-background:new 0 0 27 27;" xml:space="preserve">
<style type="text/css">
	.st0{fill:#858585;}
</style>
<g id="Group_23">
	<g id="Group_18">
		<path id="Path_41" class="st0" d="M13.5,27C6,27,0,21,0,13.5S6,0,13.5,0S27,6,27,13.5C27,21,21,27,13.5,27
			C13.5,27,13.5,27,13.5,27z M13.5,1.5c-6.6,0-12,5.4-12,12s5.4,12,12,12s12-5.4,12-12S20.1,1.5,13.5,1.5z"/>
	</g>
	<g id="Group_19">
		<path id="Path_42" class="st0" d="M18,19.7h-7.6c-0.3,0-0.6-0.2-0.7-0.5L6.6,9.6H4.5C4,9.6,3.7,9.3,3.7,8.8S4,8.1,4.5,8.1h2.7
			c0.3,0,0.6,0.2,0.7,0.5l0.7,2.3H21c0.4,0,0.8,0.3,0.8,0.8c0,0.1,0,0.2-0.1,0.3l-3,7.3C18.6,19.5,18.3,19.7,18,19.7z M10.9,18.2
			h6.6l2.4-5.8H9.1L10.9,18.2z"/>
	</g>
	<g id="Group_20">
		<circle id="Ellipse_4" class="st0" cx="10.9" cy="21.4" r="1.1"/>
	</g>
	<g id="Group_21">
		<circle id="Ellipse_5" class="st0" cx="17.3" cy="21.4" r="1.1"/>
	</g>
	<g id="Group_22">
		<path id="Path_43" class="st0" d="M8.6,11.7l2.3,6.9h6.8l2.6-6.5L8.6,11.7z"/>
	</g>
</g>
</svg>
