<?xml version="1.0" encoding="utf-8"?>
<!-- Generator: Adobe Illustrator 23.1.0, SVG Export Plug-In . SVG Version: 6.00 Build 0)  -->
<svg version="1.1" id="圖層_1" xmlns="http://www.w3.org/2000/svg" xmlns:xlink="http://www.w3.org/1999/xlink" x="0px" y="0px"
	 viewBox="0 0 25 25" style="enable-background:new 0 0 25 25;" xml:space="preserve">
<style type="text/css">
	.st0{display:none;}
	.st1{display:inline;fill:#FFFFFF;}
	.st2{display:inline;fill:#CCCCCC;}
	.st3{fill:#EB6D74;}
</style>
<g id="Component_10_4">
	<g id="Ellipse_11-3" class="st0">
		<circle class="st1" cx="12.5" cy="12.5" r="12"/>
		<path class="st2" d="M12.5,25C5.6,25,0,19.4,0,12.5S5.6,0,12.5,0S25,5.6,25,12.5C25,19.4,19.4,25,12.5,25z M12.5,1
			C6.1,1,1,6.1,1,12.5S6.1,24,12.5,24S24,18.9,24,12.5C24,6.2,18.8,1,12.5,1z"/>
	</g>
	<g id="Component_11_1-3">
		<g id="Path_369-3">
			<path class="st3" d="M16.5,6.5h-0.7c-1.4,0-2.6,0.7-3.4,1.8c-0.7-1.1-2-1.8-3.4-1.8H8.4C7,6.7,5.3,8,5.1,10.5v0.8
				c0.2,2.4,2,5.4,7.4,9.1c5.3-3.7,7.2-6.7,7.4-9.1v-0.8C19.6,8,18,6.7,16.5,6.5z"/>
		</g>
	</g>
</g>
</svg>
