<svg id="圖層_1" data-name="圖層 1" xmlns="http://www.w3.org/2000/svg" viewBox="0 0 32 32"><defs><style>.cls-1{fill:#f29600;}.cls-2{fill:#fff;}</style></defs><circle class="cls-1" cx="16" cy="16" r="16"/><path class="cls-2" d="M22.51,9.49A9.23,9.23,0,0,0,6.77,16,9.29,9.29,0,0,0,16,25.23,9.24,9.24,0,0,0,25.2,16,9.22,9.22,0,0,0,22.51,9.49ZM17,21.26v1.4H15.1V21.27A3.26,3.26,0,0,1,12,18.39h2.24a1.71,1.71,0,0,0,1.88,1.37c1.21,0,1.66-.56,1.66-1.31s-.5-1.25-2-1.69c-2.77-.82-3.54-1.83-3.54-3.4A2.92,2.92,0,0,1,15,10.49V9.34h1.89v1.09a3.06,3.06,0,0,1,2.9,2.72H17.45c-.09-.36-.34-1.13-1.63-1.13-1.09,0-1.36.65-1.36,1.15,0,.72.45,1.06,2.18,1.57,2.6.77,3.37,1.91,3.37,3.46C20,19.94,18.78,21,17,21.26Z"/><path class="cls-2" d="M24.11,7.89A11.48,11.48,0,1,0,27.48,16,11.38,11.38,0,0,0,24.11,7.89ZM23.2,23.2A10.2,10.2,0,0,1,5.8,16a10.2,10.2,0,0,1,3-7.22,10.21,10.21,0,0,1,14.4,0,10.14,10.14,0,0,1,0,14.4Z"/></svg>