<svg id="圖層_1" data-name="圖層 1" xmlns="http://www.w3.org/2000/svg" viewBox="0 0 32 32"><defs><style>.cls-1{fill:#0b318f;}.cls-2{fill:#fff;}</style></defs><circle class="cls-1" cx="16" cy="16" r="16"/><path class="cls-2" d="M25.54,16.14l-.45-1.36a1.23,1.23,0,0,0-.23-.4V10.65a1.16,1.16,0,0,0-.55-.92,17.12,17.12,0,0,0-16.62,0,1.15,1.15,0,0,0-.55.92v3.73a1.23,1.23,0,0,0-.23.4l-.45,1.36a1.15,1.15,0,0,0-.86,1.11v5.21a1.07,1.07,0,0,0,1.15,1h.77a1.42,1.42,0,0,0,1.33-1l0-.05a.64.64,0,0,1,.58-.45h13.1a.64.64,0,0,1,.58.45l0,.05a1.42,1.42,0,0,0,1.33,1h.77a1.07,1.07,0,0,0,1.15-1V17.25A1.15,1.15,0,0,0,25.54,16.14ZM8.64,13.68H23.36c.25,0,.54.35.62.74l.34,1.68H7.68L8,14.42C8.1,14,8.39,13.68,8.64,13.68Zm6.2-.67H10.22V11.86a.39.39,0,0,1,.39-.39h3.85a.39.39,0,0,1,.38.39Zm6.94,0H17.16V11.86a.39.39,0,0,1,.38-.39h3.85a.39.39,0,0,1,.39.39Z"/></svg>