<svg id="圖層_1" data-name="圖層 1" xmlns="http://www.w3.org/2000/svg" viewBox="0 0 196 70"><defs><style>.cls-1{fill:#005bab;}.cls-2{fill:#f29600;}</style></defs><path class="cls-1" d="M193.62,52l2.38-4h-5.1L193,44.69l-9.5,1.5-1.15,1.86h-4l-2.38,4h4L171,66.3c-.51.82-.07,2.12.88,2.12h11.42l2.52-4.22H180.9L188.44,52Z"/><path class="cls-1" d="M59.39,46.5,49.14,63a3.54,3.54,0,0,0,3,5.41H75.62a9,9,0,0,0,7.7-4.29L92.1,50a3.3,3.3,0,0,0-2.8-5H62.19A3.29,3.29,0,0,0,59.39,46.5Zm14,17.11-16-.09,8.25-13.31a.83.83,0,0,1,.69-.38H85.72L79.16,60.41A6.77,6.77,0,0,1,73.38,63.61Z"/><path class="cls-1" d="M97.88,51.89,87.63,68.42H96.2l10.25-16.53Z"/><path class="cls-1" d="M100.92,46.92l-1.47,2.45H108l2.38-4Z"/><path class="cls-1" d="M163.84,51.89,153.59,68.42h8.57l10.25-16.53Z"/><path class="cls-1" d="M166.88,46.92l-1.47,2.45H174l2.38-4Z"/><path class="cls-1" d="M124.39,47.39l1.53-2.45-9.5,1.49-13.64,22h8.54l10-16.15h17.86L129.08,68.42h8.63l10.57-17A2.67,2.67,0,0,0,146,47.39Z"/><path class="cls-2" d="M76.73,13.83a7.48,7.48,0,0,1-.24-3.62l-4,6.57a95.37,95.37,0,0,0,7.12,6.83,4.78,4.78,0,0,0,.39-.52c.24-.41-.58-2.4-1.1-3.64C78,17.44,77.55,16.24,76.73,13.83Z"/><path class="cls-2" d="M78.75,4.68c.48-.81,1.5-2.3,1.51-2.93S80,.69,79.35.69h0l-.54.05a6.56,6.56,0,0,0-2.79,1,15,15,0,0,0-2.32,2.87c-1.55,2.4-3,4.8-3,4.8a6.11,6.11,0,0,1-1.77,2c-2.39,1.36-4.25,2.25-7.37,3.77-2.88,1.4-3.21,1.59-3.78,2.34a12.77,12.77,0,0,0-.88,1.66c4.36-1,7.55-2.59,11.15-3.56-2.19,3.52-4.88,7.84-5.71,9.16A5.87,5.87,0,0,1,59,27.49c-.46.14-3.74,1.25-3.74,1.25l-.53.88,7.71-1.2c.36-.07,1.77-.25,2.15-.8l.48-.75c.29-.5,9-14.66,9-14.66C75.31,10.35,77.39,6.92,78.75,4.68Z"/><path class="cls-1" d="M16.6,45.44a13.69,13.69,0,0,0-2.07,6.5c0,4.2,5.29,5.08,5.29,5.08s-4.33-3.81,1.34-12.52a1.86,1.86,0,0,0-1.55-2.87h-.45A26.47,26.47,0,0,0,16.6,45.44Z"/><path class="cls-1" d="M22.13,46.82h0a14.81,14.81,0,0,0-1.45,3.53,6.91,6.91,0,0,0-.1,4.14A5.4,5.4,0,0,0,22.09,57a12.11,12.11,0,0,1,1.61-7.35A1.86,1.86,0,0,0,22.13,46.82Z"/><path class="cls-1" d="M48.39,31.64,47,33.07l6.19-.89c-3.11,5-8.2,13.29-9.38,15.19C36.54,59,32.14,58.65,20.91,58.65c-8.12,0-11.37-5.52-6.66-13.57,2-3.4,3.38-5.67,4.28-7.07a1,1,0,0,0-1-1.53L5.59,38.37a34.06,34.06,0,0,0-3,4.77C-.45,48.71-2.88,60.07,7.75,66.25c6.31,3.67,17.46,4.2,26.13.72,9.39-3.77,13.52-11.74,18-19,6-9.73,10.74-17.2,11.76-18.84Z"/></svg>