<svg id="圖層_1" data-name="圖層 1" xmlns="http://www.w3.org/2000/svg" viewBox="0 0 32 32"><defs><style>.cls-1{fill:#005ba4;}.cls-2{fill:#fff;}</style></defs><circle class="cls-1" cx="16" cy="16" r="16"/><path class="cls-2" d="M22.9,15a5.48,5.48,0,0,1-.18-2.7l-3,4.91A72.57,72.57,0,0,0,25,22.32a3.29,3.29,0,0,0,.29-.39c.18-.3-.44-1.79-.82-2.72C23.86,17.71,23.51,16.81,22.9,15Z"/><path class="cls-2" d="M24.4,8.17A7.86,7.86,0,0,0,25.53,6c0-.41-.16-.8-.68-.8h0l-.41,0A5,5,0,0,0,22.34,6a11.89,11.89,0,0,0-1.73,2.15c-1.16,1.79-2.25,3.59-2.25,3.59A4.58,4.58,0,0,1,17,13.2c-1.78,1-3.17,1.68-5.5,2.81-2.16,1-2.4,1.19-2.83,1.75A10.17,10.17,0,0,0,8.05,19c3.26-.76,5.64-1.94,8.34-2.66-1.64,2.63-3.65,5.86-4.27,6.84a4.36,4.36,0,0,1-2.46,2c-.34.1-2.8.93-2.8.93l-.39.66,5.76-.9c.27-.05,1.32-.18,1.61-.59l.36-.56c.22-.38,6.74-11,6.74-11C21.84,12.41,23.39,9.85,24.4,8.17Z"/></svg>